# File created by Blade
# Date/Time:  Tue Apr 07 20:49:23 2015
# Frame Rate: 120.000 fps
#------------------------------------------------------
:FULLY-SPECIFIED
:DEGREES
414
root 2.871906 33.591612 -7.647565 -52.449408 69.385860 -104.738827
Spine -27.692648 -15.075810 20.694657
Head -8.957412 13.892194 22.165937
LeftShoulder -25.247384 47.421318 17.674498
LeftArm 58.388897 -53.537593 -85.673923
LeftForeArm 5.143110 -0.000000 17.331965
LeftHand 7.928487 -0.000000 12.100589
LeftHandThumb1 -26.253704 0.000000 33.147579
RightShoulder -24.150440 -14.362996 -11.746262
RightArm -25.693463 49.132964 46.362108
RightForeArm 72.874544 -0.000000 2.522031
RightHand 9.565928 -0.000000 25.160716
RightHandThumb1 -24.326973 -0.000000 -32.862282
LeftUpLeg -53.403357 -0.430472 24.947751
LeftLeg 8.309700 -0.000000 -0.000000
LeftFoot -4.100071 20.425442 -1.110316
LeftToeBase -14.639678 -0.000000 0.000000
RightUpLeg 11.876371 16.984241 -19.489201
RightLeg 103.822013 -0.000000 -0.000000
RightFoot 50.353542 2.544711 -1.055164
RightToeBase 5.195079 -0.000000 -0.000000
415
root 2.840674 33.605412 -7.630246 -51.915755 69.232961 -104.524688
Spine -27.842158 -15.031026 20.719896
Head -8.903905 14.015738 22.291756
LeftShoulder -25.346402 47.377367 17.748146
LeftArm 58.742779 -54.184559 -85.872525
LeftForeArm 5.111811 -0.000000 17.275210
LeftHand 7.805144 0.000000 12.156368
LeftHandThumb1 -26.253704 0.000000 33.147579
RightShoulder -24.174095 -14.278473 -12.013031
RightArm -25.909842 48.974207 45.818385
RightForeArm 72.479518 0.000000 2.431627
RightHand 9.620735 -0.000000 24.725153
RightHandThumb1 -24.326973 -0.000000 -32.862282
LeftUpLeg -53.662838 0.247005 24.720163
LeftLeg 8.275661 -0.000000 -0.000000
LeftFoot -4.407610 19.783439 -2.183390
LeftToeBase -14.410535 -0.000000 0.000000
RightUpLeg 12.323323 16.990911 -19.737135
RightLeg 103.266575 -0.000000 -0.000000
RightFoot 50.230163 2.606673 -1.034091
RightToeBase 5.077050 -0.000000 -0.000000
416
root 2.810949 33.619025 -7.610652 -51.591463 69.062574 -104.513806
Spine -28.017037 -15.036277 20.822907
Head -8.804844 14.147238 22.390279
LeftShoulder -25.389086 47.314854 17.877153
LeftArm 59.161069 -54.853640 -86.209163
LeftForeArm 5.164264 -0.000000 17.262479
LeftHand 7.742203 0.000000 12.126713
LeftHandThumb1 -26.253704 0.000000 33.147579
RightShoulder -24.185650 -14.327035 -12.275258
RightArm -26.029426 49.036389 45.340951
RightForeArm 72.067486 -0.000000 2.282795
RightHand 9.583653 -0.000000 24.516877
RightHandThumb1 -24.326973 -0.000000 -32.862282
LeftUpLeg -53.961124 0.960529 24.462845
LeftLeg 8.319155 -0.000000 -0.000000
LeftFoot -4.873757 19.021921 -3.400302
LeftToeBase -13.865315 -0.000000 0.000000
RightUpLeg 12.779305 16.884896 -19.946660
RightLeg 102.730177 -0.000000 -0.000000
RightFoot 50.096077 2.469539 -1.149689
RightToeBase 5.486722 -0.000000 -0.000000
417
root 2.779103 33.630424 -7.596665 -51.141368 68.985102 -104.366541
Spine -28.199695 -15.073855 20.821490
Head -8.709262 14.252772 22.505057
LeftShoulder -25.486809 47.289830 17.992020
LeftArm 59.715789 -55.436331 -86.651973
LeftForeArm 4.957491 -0.000000 17.253379
LeftHand 7.815874 -0.000000 12.226041
LeftHandThumb1 -26.253704 0.000000 33.147579
RightShoulder -24.178698 -14.214353 -12.574683
RightArm -26.172651 48.633880 44.970272
RightForeArm 72.181492 -0.000000 2.186968
RightHand 9.567116 -0.000000 24.401272
RightHandThumb1 -24.326973 -0.000000 -32.862282
LeftUpLeg -54.261823 1.646412 24.093764
LeftLeg 8.339707 -0.000000 -0.000000
LeftFoot -5.318934 18.210992 -4.719413
LeftToeBase -13.431624 -0.000000 0.000000
RightUpLeg 13.238650 16.797622 -20.293048
RightLeg 102.220452 -0.000000 -0.000000
RightFoot 50.022662 2.231547 -1.117527
RightToeBase 5.012500 -0.000000 -0.000000
418
root 2.749067 33.639874 -7.581921 -50.822866 68.899474 -104.324466
Spine -28.370126 -15.117199 20.850669
Head -8.616823 14.344035 22.579408
LeftShoulder -25.472536 47.161843 18.183813
LeftArm 60.199234 -56.065642 -87.045160
LeftForeArm 4.981114 -0.000000 17.271482
LeftHand 7.737430 -0.000000 11.966337
LeftHandThumb1 -26.253704 0.000000 33.147579
RightShoulder -24.209088 -14.267862 -12.847847
RightArm -26.233008 48.536468 44.653976
RightForeArm 72.064453 -0.000000 2.075106
RightHand 9.509755 -0.000000 24.433446
RightHandThumb1 -24.326973 -0.000000 -32.862282
LeftUpLeg -54.555259 2.270044 23.772971
LeftLeg 8.391664 -0.000000 -0.000000
LeftFoot -5.802299 17.450796 -6.044088
LeftToeBase -12.854013 -0.000000 0.000000
RightUpLeg 13.739626 16.738895 -20.569035
RightLeg 101.737174 -0.000000 -0.000000
RightFoot 49.876632 1.937199 -0.957847
RightToeBase 5.403388 -0.000000 -0.000000
419
root 2.720408 33.649136 -7.565449 -50.651497 68.777381 -104.415643
Spine -28.537096 -15.177780 20.960042
Head -8.502952 14.427727 22.610610
LeftShoulder -25.437421 47.008847 18.381199
LeftArm 60.571348 -56.633646 -87.290663
LeftForeArm 4.931557 0.000000 17.265411
LeftHand 7.789491 -0.000000 11.944038
LeftHandThumb1 -26.253704 0.000000 33.147579
RightShoulder -24.222581 -14.260475 -13.191966
RightArm -26.378809 48.389114 44.304597
RightForeArm 71.920649 0.000000 1.990135
RightHand 9.412826 -0.000000 24.503949
RightHandThumb1 -24.326973 -0.000000 -32.862282
LeftUpLeg -54.832375 2.871540 23.500901
LeftLeg 8.426470 -0.000000 -0.000000
LeftFoot -6.173440 16.673913 -7.133293
LeftToeBase -12.344735 -0.000000 0.000000
RightUpLeg 14.254121 16.655178 -20.782938
RightLeg 101.246270 -0.000000 -0.000000
RightFoot 49.687917 1.744547 -0.957920
RightToeBase 5.884798 -0.000000 -0.000000
420
root 2.694367 33.657873 -7.548076 -50.539604 68.662423 -104.547468
Spine -28.690175 -15.249260 21.063048
Head -8.410608 14.512580 22.665506
LeftShoulder -25.437518 46.886805 18.530336
LeftArm 61.152237 -57.186181 -87.655236
LeftForeArm 4.953097 -0.000000 17.216234
LeftHand 7.781928 0.000000 11.995318
LeftHandThumb1 -26.253704 0.000000 33.147579
RightShoulder -24.233261 -14.301561 -13.464497
RightArm -26.397009 47.962578 44.150233
RightForeArm 72.107867 -0.000000 2.036893
RightHand 9.243244 -0.000000 24.589078
RightHandThumb1 -24.326973 -0.000000 -32.862282
LeftUpLeg -55.068624 3.339491 23.346090
LeftLeg 8.413063 -0.000000 -0.000000
LeftFoot -6.418822 16.068478 -7.965604
LeftToeBase -12.099869 -0.000000 0.000000
RightUpLeg 14.773887 16.553562 -20.983818
RightLeg 100.730676 -0.000000 -0.000000
RightFoot 49.652553 1.367940 -0.863039
RightToeBase 5.812620 -0.000000 -0.000000
421
root 2.668788 33.666035 -7.531904 -50.555783 68.513531 -104.805836
Spine -28.843273 -15.315263 21.248639
Head -8.329935 14.554146 22.660860
LeftShoulder -25.390043 46.728885 18.710377
LeftArm 61.700030 -57.690346 -87.999963
LeftForeArm 5.051923 0.000000 17.179869
LeftHand 7.800628 -0.000000 11.981447
LeftHandThumb1 -26.253704 0.000000 33.147579
RightShoulder -24.206401 -14.386059 -13.773306
RightArm -26.629126 47.923631 43.806475
RightForeArm 71.848738 -0.000000 2.210700
RightHand 9.130234 -0.000000 24.498900
RightHandThumb1 -24.326973 -0.000000 -32.862282
LeftUpLeg -55.289504 3.693363 23.341623
LeftLeg 8.372771 -0.000000 -0.000000
LeftFoot -6.663696 15.632189 -8.716729
LeftToeBase -11.643824 -0.000000 0.000000
RightUpLeg 15.272262 16.379240 -21.143658
RightLeg 100.161800 -0.000000 -0.000000
RightFoot 49.712314 0.791341 -0.898125
RightToeBase 6.316733 -0.000000 -0.000000
422
root 2.643067 33.673303 -7.515966 -50.533964 68.375789 -105.009264
Spine -28.971448 -15.378767 21.397179
Head -8.294926 14.613548 22.671110
LeftShoulder -25.306499 46.521207 18.924833
LeftArm 62.201204 -58.209952 -88.257447
LeftForeArm 5.139098 -0.000000 17.124099
LeftHand 7.735038 -0.000000 11.845889
LeftHandThumb1 -26.253704 0.000000 33.147579
RightShoulder -24.256653 -14.411915 -14.054047
RightArm -26.657121 47.680733 43.572684
RightForeArm 71.656425 -0.000000 2.257822
RightHand 9.066367 -0.000000 24.424862
RightHandThumb1 -24.326973 -0.000000 -32.862282
LeftUpLeg -55.468306 3.962623 23.392783
LeftLeg 8.282436 -0.000000 -0.000000
LeftFoot -6.838990 15.396428 -9.265209
LeftToeBase -11.308718 -0.000000 0.000000
RightUpLeg 15.773727 16.259054 -21.311811
RightLeg 99.596532 -0.000000 -0.000000
RightFoot 49.654113 0.549465 -1.084489
RightToeBase 6.554500 -0.000000 -0.000000
423
root 2.620583 33.681413 -7.498250 -50.490019 68.188425 -105.179218
Spine -29.081748 -15.404669 21.574779
Head -8.282873 14.661761 22.704750
LeftShoulder -25.253419 46.363940 19.111720
LeftArm 62.661325 -58.633628 -88.400875
LeftForeArm 5.218469 0.000000 17.053981
LeftHand 7.690713 -0.000000 11.772001
LeftHandThumb1 -26.253704 0.000000 33.147579
RightShoulder -24.321107 -14.422349 -14.320702
RightArm -26.676532 47.463024 43.308717
RightForeArm 71.402684 -0.000000 2.315877
RightHand 8.969794 -0.000000 24.338904
RightHandThumb1 -24.326973 -0.000000 -32.862282
LeftUpLeg -55.595417 4.221715 23.521070
LeftLeg 8.164848 -0.000000 -0.000000
LeftFoot -7.032711 15.231768 -9.744730
LeftToeBase -10.905626 -0.000000 0.000000
RightUpLeg 16.246540 16.241146 -21.423708
RightLeg 99.028357 -0.000000 -0.000000
RightFoot 49.546935 0.475503 -1.115483
RightToeBase 6.704321 -0.000000 -0.000000
424
root 2.597774 33.690724 -7.481303 -50.467943 67.976142 -105.386785
Spine -29.207327 -15.420865 21.800950
Head -8.250304 14.707433 22.717911
LeftShoulder -25.190568 46.247668 19.304402
LeftArm 63.098445 -59.019475 -88.534858
LeftForeArm 5.240539 -0.000000 17.027287
LeftHand 7.634975 0.000000 11.786667
LeftHandThumb1 -26.253704 0.000000 33.147579
RightShoulder -24.337810 -14.390452 -14.603574
RightArm -26.692627 47.157822 43.027494
RightForeArm 71.189342 -0.000000 2.309758
RightHand 8.829091 -0.000000 24.231725
RightHandThumb1 -24.326973 -0.000000 -32.862282
LeftUpLeg -55.730376 4.422654 23.750305
LeftLeg 8.051111 -0.000000 -0.000000
LeftFoot -7.200090 15.175042 -10.155398
LeftToeBase -10.575812 -0.000000 0.000000
RightUpLeg 16.677771 16.209296 -21.509225
RightLeg 98.427723 -0.000000 -0.000000
RightFoot 49.529160 0.367586 -1.187670
RightToeBase 6.678661 -0.000000 -0.000000
425
root 2.578610 33.700949 -7.463105 -50.390697 67.738594 -105.521516
Spine -29.325372 -15.400308 22.019670
Head -8.210763 14.747783 22.753936
LeftShoulder -25.096820 46.137650 19.484100
LeftArm 63.584134 -59.429249 -88.613776
LeftForeArm 5.284482 -0.000000 16.895418
LeftHand 7.658851 0.000000 11.672309
LeftHandThumb1 -26.253704 0.000000 33.147579
RightShoulder -24.369888 -14.403988 -14.904945
RightArm -26.949976 47.702402 42.239487
RightForeArm 70.037538 -0.000000 2.045126
RightHand 8.683964 -0.000000 24.126688
RightHandThumb1 -24.326973 -0.000000 -32.862282
LeftUpLeg -55.829426 4.650293 23.985480
LeftLeg 7.938646 -0.000000 -0.000000
LeftFoot -7.377974 15.117511 -10.552675
LeftToeBase -10.308811 -0.000000 0.000000
RightUpLeg 17.082599 16.201487 -21.577199
RightLeg 97.801591 -0.000000 -0.000000
RightFoot 49.532056 0.396595 -1.418917
RightToeBase 6.375956 -0.000000 -0.000000
